<?xml version="1.0" standalone="no"?>
<!DOCTYPE svg PUBLIC "-//W3C//DTD SVG 20010904//EN"
 "http://www.w3.org/TR/2001/REC-SVG-20010904/DTD/svg10.dtd">
<svg version="1.0" xmlns="http://www.w3.org/2000/svg"
 width="512.000000pt" height="512.000000pt" viewBox="0 0 512.000000 512.000000"
 preserveAspectRatio="xMidYMid meet">
<metadata>
Created by potrace 1.11, written by Peter Selinger 2001-2013
</metadata>
<g transform="translate(0.000000,512.000000) scale(0.100000,-0.100000)"
fill="#000000" stroke="none">
<path d="M2214 5013 c13 -33 20 -302 8 -316 -6 -7 -7 -18 -3 -26 5 -7 6 -22 4
-32 -5 -16 -8 -17 -22 -7 -9 7 -8 3 4 -11 11 -13 19 -24 17 -25 -2 0 -10 -32
-17 -71 -13 -63 -17 -81 -30 -135 -2 -8 -4 -23 -4 -33 -1 -10 -5 -16 -10 -13
-5 3 -7 -8 -6 -24 1 -17 -1 -30 -5 -30 -3 0 -7 -6 -7 -12 0 -7 -8 -40 -18 -73
-10 -33 -19 -64 -19 -70 -1 -5 -6 -10 -13 -10 -6 0 -15 -4 -20 -9 -5 -5 -3 -6
5 -2 19 11 14 -15 -5 -31 -10 -8 -12 -12 -5 -8 16 8 15 4 -4 -45 -9 -22 -20
-40 -26 -40 -5 0 -7 -4 -4 -9 3 -4 -4 -31 -16 -59 -19 -44 -24 -50 -37 -39
-14 11 -14 10 -2 -5 10 -14 11 -21 2 -31 -6 -8 -7 -17 -3 -22 4 -4 -3 -5 -16
-2 -18 4 -21 3 -12 -8 8 -10 6 -23 -9 -52 -11 -21 -29 -59 -41 -85 -13 -27
-27 -48 -32 -48 -5 0 -6 -5 -3 -10 3 -6 -1 -13 -9 -16 -9 -3 -14 -10 -11 -14
3 -5 -1 -15 -9 -23 -8 -8 -12 -17 -9 -21 4 -3 1 -6 -5 -6 -7 0 -11 -6 -9 -12
1 -7 -4 -12 -11 -10 -8 1 -11 -1 -9 -5 7 -12 -12 -55 -21 -49 -5 3 -9 -1 -9
-8 0 -21 -64 -117 -74 -110 -5 3 -6 -2 -3 -10 3 -9 -5 -26 -20 -41 -14 -14
-22 -25 -18 -25 4 0 -2 -7 -12 -15 -11 -8 -17 -15 -13 -15 4 0 0 -11 -9 -25
-9 -14 -21 -22 -27 -18 -5 3 -7 1 -4 -4 6 -9 -52 -96 -73 -113 -4 -3 -13 -16
-20 -29 -10 -19 -14 -21 -22 -10 -8 11 -8 10 -4 -4 9 -27 -3 -40 -22 -25 -15
11 -15 11 -5 -3 11 -13 7 -23 -19 -57 -27 -35 -34 -39 -47 -29 -14 10 -14 10
-4 -3 13 -17 0 -43 -44 -90 -13 -13 -23 -27 -23 -32 0 -13 -17 -9 -17 5 -3 59
-14 150 -18 158 -4 5 2 9 12 10 16 0 16 1 -2 8 -19 8 -19 8 0 20 18 11 18 12
1 7 -16 -5 -18 -2 -14 29 2 19 1 36 -4 37 -4 2 -9 27 -10 55 -2 29 -5 53 -8
53 -3 0 -6 9 -7 20 -1 13 3 18 10 14 7 -3 3 2 -7 10 -11 9 -17 16 -14 16 14 0
-62 203 -112 301 -16 31 -27 59 -25 63 3 3 2 4 -2 1 -3 -3 -8 -26 -9 -52 -7
-111 -40 -256 -57 -247 -9 5 -9 4 -1 -5 9 -10 4 -31 -20 -89 -17 -43 -38 -83
-46 -90 -8 -8 -9 -11 -2 -7 6 3 12 1 12 -4 0 -6 -4 -11 -8 -11 -4 0 -9 -10 -9
-22 -1 -13 -7 -24 -13 -26 -5 -2 -10 -12 -10 -23 0 -17 -11 -24 -33 -20 -5 1
-6 -3 -2 -9 3 -6 11 -8 16 -5 5 4 9 2 9 -4 0 -5 -4 -12 -9 -16 -5 -3 -12 -19
-16 -35 -4 -17 -11 -30 -16 -30 -5 0 -9 -6 -9 -12 0 -7 -35 -84 -78 -171 -65
-132 -80 -155 -92 -145 -12 11 -12 10 -1 -4 10 -14 10 -21 0 -40 -7 -13 -12
-27 -11 -32 2 -5 -7 -6 -20 -3 -21 5 -21 5 -6 -7 17 -12 16 -14 0 -32 -20 -21
-22 -26 -22 -50 0 -9 -5 -12 -12 -8 -6 4 -8 3 -4 -4 6 -9 -11 -59 -24 -72 -3
-3 -7 -14 -8 -25 -2 -11 -7 -22 -10 -25 -4 -3 -7 -11 -8 -17 -2 -30 -5 -34
-16 -27 -7 4 -8 3 -4 -5 10 -15 -3 -73 -14 -66 -5 3 -12 0 -16 -6 -4 -8 -3 -9
4 -5 7 4 12 1 12 -8 0 -9 -5 -16 -11 -16 -5 0 -8 -3 -5 -8 2 -4 1 -23 -3 -42
-6 -27 -12 -34 -27 -32 -17 2 -18 2 -2 -8 10 -6 18 -20 18 -31 0 -11 -4 -17
-10 -14 -6 4 -7 -1 -3 -11 5 -13 3 -15 -8 -9 -12 7 -12 6 -1 -7 10 -13 10 -17
0 -21 -11 -4 -10 -6 0 -6 7 -1 11 -5 8 -10 -7 -11 -18 -90 -17 -118 0 -13 -3
-23 -7 -23 -5 0 -9 -7 -9 -15 0 -8 5 -11 10 -8 6 4 8 -1 4 -11 -4 -10 -7 -35
-7 -57 0 -32 -3 -37 -18 -32 -16 5 -16 5 1 -8 13 -11 17 -25 14 -54 -2 -22 1
-48 6 -59 7 -13 6 -16 -3 -11 -9 6 -9 3 -1 -13 6 -12 11 -34 11 -49 -1 -41 5
-76 13 -90 5 -8 3 -13 -5 -13 -9 0 -10 -2 -2 -8 15 -9 21 -43 11 -60 -6 -8 -4
-12 5 -10 8 2 13 -7 13 -24 -1 -14 2 -25 6 -22 14 8 20 -49 7 -58 -10 -7 -9
-8 4 -4 11 3 19 -2 24 -17 13 -42 66 -152 81 -170 9 -9 13 -17 9 -17 -4 0 0
-7 8 -16 9 -8 14 -20 11 -25 -4 -5 1 -9 9 -9 9 0 16 -6 16 -12 0 -7 10 -25 23
-40 40 -48 62 -81 59 -90 -1 -5 2 -7 8 -3 5 3 13 -1 16 -10 9 -22 172 -184
178 -177 3 3 6 -1 6 -10 0 -8 11 -21 25 -28 13 -7 22 -17 19 -22 -3 -4 0 -8 5
-8 6 0 38 -21 70 -46 41 -32 58 -51 54 -63 -4 -14 -3 -14 7 -1 9 11 13 12 17
3 2 -7 10 -13 17 -13 17 0 48 -35 39 -44 -4 -4 0 -4 10 -1 9 4 23 0 32 -9 9
-9 13 -16 8 -17 -4 -1 3 -4 17 -8 14 -4 24 -13 22 -20 -1 -7 2 -9 9 -5 7 4 18
-1 25 -10 7 -10 15 -17 18 -16 11 2 66 -34 66 -43 0 -4 4 -5 10 -2 5 3 10 2
10 -3 0 -6 12 -13 26 -16 15 -4 24 -12 21 -20 -3 -7 2 -12 12 -12 9 1 16 -3
16 -9 0 -5 -4 -9 -8 -7 -5 1 -6 -2 -2 -8 5 -8 11 -8 20 0 17 14 59 -5 49 -22
-4 -7 -2 -8 5 -4 6 4 23 1 36 -8 32 -21 33 -20 31 8 0 13 -4 22 -7 20 -12 -7
-38 63 -27 74 7 7 4 14 -10 21 -11 6 -24 25 -27 43 -4 18 -12 39 -19 47 -6 8
-10 15 -8 15 2 1 -2 15 -8 31 -7 17 -14 46 -17 65 -3 19 -10 41 -16 47 -5 7
-7 19 -4 28 4 8 2 17 -3 20 -5 3 -7 14 -5 25 2 11 0 20 -6 20 -5 0 -9 5 -9 11
0 5 6 7 13 3 8 -5 7 -2 -2 10 -9 11 -15 44 -15 96 -1 44 -5 80 -10 80 -5 0 -2
8 5 17 9 11 10 14 2 9 -8 -4 -11 -2 -8 6 2 7 7 33 10 58 7 52 9 64 19 105 17
68 18 69 27 54 7 -10 8 -6 4 11 -7 29 37 155 49 143 5 -5 5 2 2 15 -5 13 -3
22 3 22 6 0 10 3 9 7 -4 15 13 53 23 53 6 0 8 4 4 9 -3 5 2 17 11 25 8 9 13
16 9 16 -6 0 35 80 46 90 3 3 9 12 12 20 19 40 46 75 57 72 6 -1 9 2 6 7 -4 5
3 26 15 46 16 27 24 33 31 23 7 -10 8 -10 6 2 -4 20 22 81 32 75 4 -3 7 3 6
13 0 9 4 16 11 15 8 -2 10 4 6 14 -4 9 -2 14 4 10 5 -3 9 4 9 16 -1 12 4 21
11 20 8 -2 10 4 6 14 -4 9 1 21 11 29 10 6 17 15 17 18 -1 3 -1 7 0 9 0 1 2 9
4 17 2 8 24 65 48 125 57 140 59 146 64 170 2 10 7 22 11 25 4 3 9 16 11 30 1
14 7 32 12 41 4 9 11 31 14 50 3 19 10 38 14 42 11 11 44 -79 35 -94 -4 -7 -3
-9 3 -6 13 8 36 -50 26 -66 -3 -6 -1 -7 5 -3 7 4 12 1 12 -9 0 -10 -5 -14 -12
-10 -7 4 -5 0 4 -8 10 -8 15 -17 11 -20 -3 -4 -2 -7 4 -7 10 0 27 -66 26 -102
0 -10 3 -18 7 -18 4 0 7 -15 8 -32 0 -18 4 -44 8 -57 4 -15 3 -22 -3 -18 -5 3
-10 0 -10 -8 0 -8 4 -12 9 -9 4 3 8 -34 8 -81 0 -55 -4 -84 -10 -80 -5 3 -10
1 -10 -4 0 -6 4 -11 9 -11 6 0 6 -12 1 -30 -6 -19 -5 -32 2 -36 7 -5 8 -2 3 6
-6 10 -4 12 9 7 10 -4 15 -3 11 4 -10 15 16 41 34 34 12 -5 13 -3 4 5 -8 9 -6
18 9 36 12 13 26 21 31 17 6 -3 7 -1 3 5 -4 6 0 24 8 39 8 16 15 24 16 18 0
-5 12 14 27 43 14 28 31 48 36 45 6 -3 7 -1 3 5 -8 13 14 63 25 56 5 -3 6 1 3
9 -3 8 6 36 20 62 15 26 26 54 26 62 0 8 5 11 12 7 6 -4 8 -3 5 3 -8 13 12 75
23 68 4 -2 5 7 2 22 -3 14 -1 23 4 20 5 -3 10 6 10 19 1 13 5 32 9 42 5 9 10
26 12 36 2 11 9 26 16 35 9 12 9 13 0 7 -18 -10 -4 25 16 42 9 8 10 11 4 7 -8
-4 -13 0 -13 9 0 8 6 17 13 19 6 3 7 6 1 6 -7 1 -8 16 0 51 8 39 14 49 26 45
11 -4 11 -2 -2 8 -10 8 -16 16 -13 19 6 5 18 103 17 133 -1 10 4 26 11 34 9
12 9 13 0 7 -8 -4 -13 -1 -13 9 0 9 5 13 10 10 6 -3 10 -1 10 4 0 6 -5 11 -11
11 -8 0 -7 6 2 17 10 11 10 14 2 9 -16 -9 -16 -1 -2 26 6 11 7 18 2 15 -4 -3
-9 20 -10 51 -1 35 2 59 10 64 9 6 8 8 -3 8 -9 0 -16 10 -16 25 l-2 25 29 -21
c16 -11 26 -25 23 -31 -4 -6 -3 -8 2 -5 13 8 39 -9 39 -25 0 -7 9 -12 19 -10
13 3 17 -1 13 -12 -4 -10 -1 -13 9 -9 7 3 14 0 14 -6 0 -6 7 -11 15 -11 9 0
15 -9 15 -22 0 -15 3 -19 8 -11 11 18 45 -24 37 -45 -5 -13 -3 -14 6 -5 8 8
24 -2 66 -43 49 -48 54 -56 42 -72 -10 -13 -10 -15 0 -5 10 8 18 7 32 -5 21
-18 26 -37 7 -26 -8 4 -10 3 -5 -2 5 -5 13 -10 18 -10 5 -1 12 -2 17 -3 4 0
16 -17 26 -36 11 -19 23 -35 29 -35 5 0 6 -7 3 -16 -3 -8 -2 -13 3 -10 9 6 87
-104 83 -116 -1 -5 2 -8 7 -8 5 0 13 -9 16 -20 3 -11 12 -26 18 -32 23 -24 57
-90 52 -99 -4 -5 -2 -9 4 -9 11 0 104 -184 104 -206 0 -8 5 -14 10 -14 6 0 7
-3 4 -7 -4 -3 0 -15 10 -25 9 -10 13 -18 9 -18 -3 0 1 -14 10 -31 13 -26 14
-33 2 -40 -10 -7 -9 -9 6 -9 12 0 16 -5 12 -15 -3 -8 0 -15 5 -15 6 0 9 -9 6
-20 -3 -13 -1 -18 6 -13 6 4 8 -2 4 -16 -3 -13 -3 -20 1 -17 8 9 40 -94 36
-117 -1 -9 2 -17 8 -17 6 0 8 -9 5 -20 -3 -10 -1 -20 4 -22 5 -2 11 -21 14
-43 6 -53 9 -68 17 -80 4 -6 3 -17 -3 -25 -5 -8 -9 -19 -9 -25 0 -5 5 -3 10 5
8 12 10 10 11 -10 0 -14 2 -34 3 -45 15 -105 16 -138 4 -153 -11 -13 -11 -14
1 -7 11 6 13 3 9 -13 -4 -12 -3 -22 1 -22 10 0 7 -64 -4 -72 -7 -5 -6 -8 0 -8
11 0 11 -48 1 -220 -2 -41 -4 -85 -5 -98 -1 -13 -5 -21 -10 -17 -5 3 -13 0
-17 -6 -4 -8 -3 -9 4 -5 11 7 17 -7 12 -29 -1 -5 -3 -15 -4 -21 -1 -7 -8 -20
-16 -30 -9 -11 -10 -15 -2 -10 8 5 12 0 12 -14 0 -12 -4 -18 -10 -15 -5 3 -10
1 -10 -4 0 -6 4 -11 9 -11 5 0 7 -9 4 -20 -3 -11 -8 -20 -12 -20 -4 0 -7 -10
-8 -22 0 -13 -3 -34 -6 -48 -15 -71 -20 -81 -35 -75 -12 4 -13 3 -2 -9 10 -13
7 -29 -15 -88 -14 -40 -30 -81 -36 -90 -5 -10 -9 -25 -9 -33 0 -9 -7 -18 -15
-21 -8 -4 -12 -10 -9 -15 3 -5 0 -9 -6 -9 -6 0 -9 -3 -7 -7 8 -13 -12 -55 -22
-48 -5 3 -12 1 -15 -4 -9 -15 37 -6 65 12 14 10 29 14 32 10 4 -3 7 -1 7 6 0
12 57 38 73 33 5 -1 6 2 3 7 -3 4 13 21 35 36 23 15 38 21 34 13 -3 -7 -1 -6
7 2 26 31 180 130 191 123 7 -3 9 -3 5 2 -11 11 20 37 34 29 7 -4 10 -4 6 0
-10 12 15 34 31 28 8 -3 12 -1 8 5 -7 11 41 49 56 45 5 -1 6 1 4 5 -3 5 1 14
9 21 8 7 14 11 14 8 0 -2 14 9 30 26 17 17 37 28 45 24 9 -3 12 0 9 9 -6 13
29 39 39 29 3 -3 4 3 3 13 0 10 5 17 12 16 6 -2 12 2 12 8 0 5 5 7 10 4 6 -4
9 -2 8 2 -2 5 12 26 30 47 17 20 32 33 32 29 0 -4 10 7 21 24 12 18 25 30 30
27 5 -3 8 -1 7 4 -2 5 10 21 25 36 15 14 24 26 20 26 -4 0 9 16 30 35 21 19
37 37 36 41 -3 11 33 54 42 49 4 -3 11 0 15 6 4 8 3 9 -4 5 -17 -10 -15 6 4
32 8 12 19 20 24 17 5 -3 12 0 16 6 5 8 3 9 -6 4 -14 -8 -13 -8 15 47 10 21
22 38 27 38 4 0 8 6 8 13 0 17 28 77 46 97 13 15 14 19 14 46 0 11 5 14 16 10
15 -6 15 -4 3 10 -11 14 -11 18 -1 21 6 3 10 9 6 14 -3 5 -1 9 4 9 6 0 8 9 5
20 -4 15 0 20 13 21 11 0 14 3 6 6 -6 2 -10 9 -6 14 3 5 8 22 10 37 3 15 13
36 22 46 9 11 11 16 4 12 -15 -9 -15 -7 2 40 7 22 11 45 8 53 -3 9 0 12 10 9
8 -4 15 0 15 8 0 7 -5 10 -10 7 -6 -4 -8 1 -4 11 4 10 7 27 7 37 0 11 3 18 8
16 6 -5 11 44 12 115 0 15 8 31 17 37 11 7 13 11 5 11 -15 0 -14 47 1 68 6 8
5 12 -3 12 -8 0 -9 4 -3 13 5 6 8 45 7 84 -1 52 1 71 10 66 6 -3 6 -1 -1 8
-16 16 -17 33 -1 23 8 -5 8 -3 2 7 -5 8 -10 30 -10 49 -1 19 -5 54 -8 77 -5
31 -3 43 6 43 10 0 9 3 -1 9 -10 6 -14 30 -15 74 -1 36 -4 61 -7 55 -3 -5 -9
8 -12 29 -6 39 -10 56 -23 107 -5 22 -4 27 6 21 9 -5 11 -4 6 4 -4 6 -12 9
-17 6 -8 -6 -13 18 -13 67 0 9 -3 15 -7 13 -6 -5 -24 62 -21 78 1 4 -3 7 -9 7
-5 0 -7 5 -4 10 3 6 1 10 -4 10 -6 0 -11 8 -11 19 0 19 -26 90 -66 179 -14 29
-21 58 -18 64 4 7 2 8 -4 4 -7 -4 -12 -2 -12 3 0 6 4 11 9 11 5 0 -4 14 -19
30 -16 17 -31 44 -35 60 -4 17 -12 36 -18 43 -18 18 -57 97 -57 114 0 8 -5 11
-12 7 -8 -5 -9 -2 -5 9 4 10 2 16 -6 14 -7 -1 -11 4 -9 11 1 6 -3 12 -8 12 -6
0 -8 11 -6 25 3 15 1 23 -5 20 -5 -4 -6 -12 -2 -18 4 -7 0 -6 -10 2 -9 7 -15
17 -12 21 2 4 -4 15 -15 25 -11 10 -20 24 -20 30 0 7 -7 15 -15 19 -8 3 -15
12 -15 21 0 8 -4 15 -10 15 -5 0 -10 4 -10 10 0 5 -12 23 -27 39 -58 61 -94
111 -88 121 4 6 2 9 -3 8 -14 -4 -53 43 -45 55 3 5 1 7 -4 4 -6 -4 -18 2 -28
13 -10 11 -16 20 -12 20 5 0 -5 11 -95 107 -21 22 -38 43 -38 46 0 2 -38 42
-84 88 -54 53 -82 88 -79 98 4 14 3 14 -6 0 -7 -11 -5 -34 9 -80 21 -65 26
-88 37 -148 5 -27 3 -33 -8 -27 -8 4 -6 1 3 -7 12 -9 17 -24 14 -46 -2 -17 1
-31 6 -31 5 0 4 -9 -2 -19 -7 -13 -7 -22 0 -26 5 -3 10 -13 10 -21 0 -10 -5
-12 -12 -8 -10 6 -10 5 -1 -7 11 -13 12 -57 4 -132 -1 -5 -7 -5 -13 -1 -10 6
-10 4 0 -7 14 -15 16 -53 2 -44 -5 3 -7 0 -4 -9 3 -8 2 -21 -2 -28 -4 -7 -9
-22 -10 -34 -3 -31 -60 -130 -73 -127 -6 2 -8 -4 -5 -12 4 -9 0 -15 -10 -15
-10 0 -13 -6 -9 -17 3 -10 2 -15 -2 -11 -5 5 -15 -2 -23 -13 -13 -19 -16 -20
-24 -5 -5 9 -6 21 -2 28 5 7 3 8 -6 3 -10 -6 -12 -3 -8 13 4 12 2 25 -3 28 -5
3 -7 9 -4 14 3 5 0 12 -6 15 -5 4 -8 13 -5 21 3 8 2 14 -2 14 -6 0 -28 58 -38
100 0 3 -4 13 -8 22 -4 9 -5 22 -1 28 3 5 1 10 -4 10 -6 0 -11 7 -11 16 0 9 5
12 13 8 7 -4 9 -3 4 2 -5 5 -13 9 -18 9 -5 0 -8 5 -6 10 1 6 6 9 10 7 5 -1 6
2 2 8 -3 6 -10 8 -15 5 -8 -5 -36 62 -32 78 1 4 -3 7 -9 7 -8 0 -7 5 1 15 11
13 10 14 -4 9 -12 -5 -15 -2 -10 10 3 9 1 16 -5 16 -6 0 -11 5 -11 11 0 5 6 7
13 3 6 -4 2 3 -10 15 -13 12 -23 30 -23 41 0 10 -3 20 -7 22 -13 5 -44 79 -38
89 4 5 -2 9 -11 9 -10 0 -14 3 -11 6 4 4 -3 20 -14 35 -11 16 -17 34 -13 40 4
7 3 9 -3 6 -13 -8 -36 40 -27 56 4 7 4 9 -1 5 -12 -11 -35 11 -35 32 0 10 -4
20 -8 22 -8 3 -24 24 -106 143 -12 17 -25 33 -31 37 -6 5 -6 8 0 8 5 0 -1 7
-13 16 -12 8 -22 25 -22 36 0 12 -3 18 -6 15 -10 -9 -65 64 -57 76 3 5 2 7 -4
4 -9 -6 -73 54 -73 69 0 3 -11 15 -25 26 -14 11 -23 23 -20 28 3 5 0 12 -6 16
-8 5 -9 3 -4 -7 8 -12 6 -12 -8 0 -9 7 -14 17 -11 22 3 5 2 8 -3 7 -5 -2 -25
13 -45 32 -64 63 -120 110 -129 110 -5 0 -9 4 -9 8 0 4 -18 19 -39 32 -29 19
-36 28 -29 38 8 9 7 11 -5 6 -15 -5 -73 27 -88 49 -3 5 -8 8 -10 6 -5 -2 -92
41 -99 50 -3 3 -14 8 -25 9 -11 2 -22 8 -23 13 -2 5 -8 7 -13 3 -5 -3 -9 -1
-9 4 0 5 -6 9 -12 9 -7 0 -30 8 -52 18 -37 16 -38 16 -32 -2z"/>
<path d="M2115 4249 c-4 -6 -5 -12 -2 -15 2 -3 7 2 10 11 7 17 1 20 -8 4z"/>
<path d="M4115 3660 c3 -5 8 -10 11 -10 2 0 4 5 4 10 0 6 -5 10 -11 10 -5 0
-7 -4 -4 -10z"/>
<path d="M4170 3586 c0 -2 7 -7 16 -10 8 -3 12 -2 9 4 -6 10 -25 14 -25 6z"/>
<path d="M1735 3449 c-4 -6 -5 -12 -2 -15 2 -3 7 2 10 11 7 17 1 20 -8 4z"/>
<path d="M1193 3391 c0 -11 5 -18 9 -15 4 3 5 11 1 19 -7 21 -12 19 -10 -4z"/>
<path d="M1220 3286 c0 -2 8 -10 18 -17 15 -13 16 -12 3 4 -13 16 -21 21 -21
13z"/>
<path d="M1590 3219 c0 -5 5 -7 10 -4 6 3 10 8 10 11 0 2 -4 4 -10 4 -5 0 -10
-5 -10 -11z"/>
<path d="M1287 2859 c7 -7 15 -10 18 -7 3 3 -2 9 -12 12 -14 6 -15 5 -6 -5z"/>
<path d="M2633 2455 c0 -8 4 -12 9 -9 5 3 6 10 3 15 -9 13 -12 11 -12 -6z"/>
<path d="M1713 1445 c0 -8 4 -12 9 -9 5 3 6 10 3 15 -9 13 -12 11 -12 -6z"/>
<path d="M1496 873 c-6 -14 -5 -15 5 -6 7 7 10 15 7 18 -3 3 -9 -2 -12 -12z"/>
<path d="M3655 260 c-3 -5 -1 -10 4 -10 6 0 11 5 11 10 0 6 -2 10 -4 10 -3 0
-8 -4 -11 -10z"/>
<path d="M1630 203 c0 -6 8 -17 18 -24 16 -13 16 -13 2 6 -8 11 -16 22 -17 24
-2 2 -3 0 -3 -6z"/>
<path d="M3416 113 c-6 -14 -5 -15 5 -6 7 7 10 15 7 18 -3 3 -9 -2 -12 -12z"/>
</g>
</svg>
